<svg xmlns="http://www.w3.org/2000/svg" version="1.0" width="1920" height="1152" preserveAspectRatio="xMidYMid meet" style=""><rect id="backgroundrect" width="100%" height="100%" x="0" y="0" fill="none" stroke="none"/>
<metadata fill="#f5cac2">
Created by potrace 1.16, written by Peter Selinger 2001-2019
</metadata>

<g class="currentLayer" style="" fill="#f5cac2"><title>Layer 1</title>
<path d="M751.6578872201175,288.8286628096615 l0,15.01786552396216 l34.99011211082505,0 l34.99011211082505,0 l0,-15.01786552396216 l0,-15.01786552396216 l-34.99011211082505,0 l-34.99011211082505,0 l0,15.01786552396216 z" id="svg_2" class="" fill="#f5cac2"/>
<path d="M751.6578872201175,312.3566521305356 l0,3.504168622257837 l34.99011211082505,0 l34.99011211082505,0 l0,-3.504168622257837 l0,-3.504168622257837 l-34.99011211082505,0 l-34.99011211082505,0 l0,3.504168622257837 z" id="svg_3" class="" fill="#f5cac2"/>
<path d="M751.6578872201175,490.06806083075446 l0,169.201284903307 l34.99011211082505,0 l34.99011211082505,0 l0,-169.201284903307 l0,-169.201284903307 l-34.99011211082505,0 l-34.99011211082505,0 l0,169.201284903307 z" id="svg_4" class="" fill="#f5cac2"/>
<path d="M1127.5516630392667,386.4447887154156 l0,18.522034146219998 l34.4902533663847,0 l34.4902533663847,0 l0,-18.522034146219998 l0,-18.522034146219998 l-34.4902533663847,0 l-34.4902533663847,0 l0,18.522034146219998 z" id="svg_5" class="" fill="#f5cac2"/>
<path d="M824.6372639084098,394.4543169948621 l0,19.523225181150806 l38.988982066347916,0 l38.988982066347916,0 l-0.1999434977761433,-19.322986974164646 l-0.2999152466642148,-19.222867870671564 l-38.6890668196837,-0.3003573104792433 l-38.789038568571776,-0.20023820698616218 l0,19.523225181150806 z" id="svg_6" class="" fill="#f5cac2"/>
<path d="M1048.9738684132424,393.25288775294507 c-0.1999434977761433,0.7008337244515674 -0.2999152466642148,8.510123796911891 -0.1999434977761433,17.220485800809943 l0.2999152466642148,16.01905655889297 l37.289462335250704,0.3003573104792433 l37.18949058636263,0.20023820698616218 l0,-17.520843111289185 l0,-17.520843111289185 l-36.98954708858649,0 c-29.291722424204977,0 -37.18949058636263,0.3003573104792433 -37.58937758191492,1.3015483454100538 z" id="svg_7" class="" fill="#f5cac2"/>
<path d="M935.9058204208334,404.86670375814253 c-17.694999553188673,4.70559786417481 -32.49081838862327,8.910600210884215 -32.79073363528748,9.31107662485654 c-0.6998022422165013,0.7008337244515674 4.098841704410935,20.52441621608162 5.398474439955866,22.7270364929294 c0.499858744440358,0.7008337244515674 11.496751122128233,-1.8021438628754591 34.69019686416084,-8.009528279446485 c18.594745293181315,-5.005955174654053 33.99039462194434,-9.210957521363458 34.09036637083241,-9.31107662485654 c0.09997174888807162,-0.10011910349308106 -1.199660986656859,-5.5065506921194585 -2.899180717754076,-11.914173315676646 c-2.399321973313718,-8.810481107391134 -3.4990112110825056,-11.713935108690485 -4.698672197739365,-11.613816005197403 c-0.8997457399926444,0 -16.095451570979527,4.0047641397232425 -33.7904511241682,8.810481107391134 z" id="svg_8" class="" fill="#f5cac2"/>
<path d="M1127.5516630392667,412.9763511410821 l0,3.003573104792432 l34.4902533663847,0 l34.4902533663847,0 l0,-3.003573104792432 l0,-3.003573104792432 l-34.4902533663847,0 l-34.4902533663847,0 l0,3.003573104792432 z" id="svg_9" class="" fill="#f5cac2"/>
<path d="M824.6372639084098,422.4876659729248 l0,3.504168622257837 l38.789038568571776,-0.20023820698616218 l38.6890668196837,-0.3003573104792433 l0,-3.003573104792432 l0,-3.003573104792432 l-38.6890668196837,-0.3003573104792433 l-38.789038568571776,-0.20023820698616218 l0,3.504168622257837 z" id="svg_10" class="" fill="#f5cac2"/>
<path d="M1127.7516065370428,536.323086644558 l0.2999152466642148,114.43613529259166 l34.29030986860855,0.3003573104792433 l34.19033811972048,0.20023820698616218 l0,-114.63637349957781 l0,-114.63637349957781 l-34.4902533663847,0 l-34.4902533663847,0 l0.1999434977761433,114.33601618909857 z" id="svg_11" class="" fill="#f5cac2"/>
<path d="M943.6036450852149,433.901243771136 c-27.392259195331615,7.408813658487999 -32.49081838862327,9.110838417870376 -32.79073363528748,10.712744073759673 c-0.5998304933284297,5.005955174654053 0.09997174888807162,4.905836071160972 35.29002735748927,-4.505359657188648 c18.594745293181315,-5.005955174654053 33.890422873056266,-9.210957521363458 34.09036637083241,-9.31107662485654 c0.09997174888807162,-0.20023820698616218 0,-1.501786552396216 -0.2999152466642148,-3.103692208285513 c-0.2999152466642148,-1.702024759382378 -1.0996892377687875,-2.7032157943131887 -2.199378475537575,-2.6030966908201076 c-0.8997457399926444,0 -16.195423319867597,4.0047641397232425 -34.09036637083241,8.810481107391134 z" id="svg_12" class="" fill="#f5cac2"/>
<path d="M824.6372639084098,536.6234439550371 l0,105.62565418520052 l38.988982066347916,0 l38.988982066347916,0 l0,-105.62565418520052 l0,-105.62565418520052 l-38.988982066347916,0 l-38.988982066347916,0 l0,105.62565418520052 z" id="svg_13" class="" fill="#f5cac2"/>
<path d="M1048.57398141769,435.0025539095599 l0,3.003573104792432 l37.489405833026844,0 l37.489405833026844,0 l0,-3.003573104792432 l0,-3.003573104792432 l-37.489405833026844,0 l-37.489405833026844,0 l0,3.003573104792432 z" id="svg_14" class="" fill="#f5cac2"/>
<path d="M947.2026280451855,445.014464258868 c-17.994914799852886,4.905836071160972 -33.090648881951694,9.110838417870376 -33.39056412861591,9.41119572834962 c-0.2999152466642148,0.40047641397232436 -0.09997174888807162,2.5029775873270266 0.499858744440358,4.905836071160972 c3.099124215530219,13.015483454100538 53.58485740400637,200.53856429664137 54.1846878973348,201.03915981410677 c0.2999152466642148,0.40047641397232436 15.795536324315309,-3.404049518764756 34.390281617496626,-8.41000469341881 c26.192598208674756,-7.008337244515674 33.69047937528013,-9.41119572834962 33.69047937528013,-10.612624970266593 c-0.09997174888807162,-3.404049518764756 -54.58457489288709,-204.74356664335076 -55.48432063287973,-204.94380485033693 c-0.5998304933284297,-0.10011910349308106 -15.795536324315309,3.7044068292439993 -33.890422873056266,8.610242900404971 z" id="svg_15" class="" fill="#f5cac2"/>
<path d="M1049.2737836599065,443.712915913458 c-0.3998869955522865,0.3003573104792433 -0.6998022422165013,49.45883712558204 -0.6998022422165013,109.12982280745835 l0,108.4289890830068 l37.489405833026844,0 l37.489405833026844,0 l0,-109.12982280745835 l0,-109.12982280745835 l-36.789603590810344,0 c-20.29426502427853,0 -37.18949058636263,0.3003573104792433 -37.489405833026844,0.7008337244515674 z" id="svg_16" class="" fill="#f5cac2"/>
<path d="M824.6372639084098,651.259817454615 l0,3.003573104792432 l38.789038568571776,-0.20023820698616218 l38.6890668196837,-0.3003573104792433 l0.2999152466642148,-2.8033348978062698 l0.2999152466642148,-2.7032157943131887 l-38.988982066347916,0 l-39.08895381523599,0 l0,3.003573104792432 z" id="svg_17" class="" fill="#f5cac2"/>
<path d="M1002.5869769291771,657.1668445607067 c-31.49110089974255,8.510123796911891 -32.49081838862327,8.910600210884215 -32.190903141959055,11.213339591225079 c0.09997174888807162,1.3015483454100538 0.5998304933284297,2.7032157943131887 0.9997174888807158,3.103692208285513 c0.3998869955522865,0.40047641397232436 15.69556457542724,-3.303930415271675 34.09036637083241,-8.209766486432647 c18.394801795405172,-5.005955174654053 33.59050762639205,-9.010719314377296 33.7904511241682,-9.010719314377296 c0.1999434977761433,0 0.2999152466642148,-1.2014292419169728 0.09997174888807162,-2.8033348978062698 c-0.1999434977761433,-1.8021438628754591 -0.8997457399926444,-2.8033348978062698 -2.2993502244256465,-2.903454001299351 c-1.0996892377687875,-0.10011910349308106 -16.595310315419884,3.8045259327370804 -34.4902533663847,8.610242900404971 z" id="svg_18" class="" fill="#f5cac2"/>
<path d="M1127.5516630392667,659.2693457340615 l0,3.003573104792432 l34.4902533663847,0 l34.4902533663847,0 l0,-3.003573104792432 l0,-3.003573104792432 l-34.4902533663847,0 l-34.4902533663847,0 l0,3.003573104792432 z" id="svg_19" class="" fill="#f5cac2"/>
<path d="M824.4373204106336,681.9963822269908 c-0.1999434977761433,17.020247593823782 -0.5998304933284297,22.7270364929294 -1.4995762333210738,23.127512906901725 c-0.9997174888807158,0.3003573104792433 -1.2996327355449306,-3.003573104792432 -1.2996327355449306,-14.216912696017511 l0,-14.617389109989835 l-34.99011211082505,0 l-34.890140361936986,0 l-0.2999152466642148,14.216912696017511 l-0.2999152466642148,14.317031799510591 l-29.691609419757263,0.3003573104792433 l-29.791581168645333,0.20023820698616218 l0,9.5113148318427 l0,9.5113148318427 l283.9197668421233,0 l283.9197668421233,0 l0,-9.5113148318427 l0,-9.5113148318427 l-31.49110089974255,0 l-31.49110089974255,0 l0,-19.0226296636854 l0,-19.0226296636854 l-34.4902533663847,0 l-34.4902533663847,0 l0,19.122748767178482 c0,17.620962214782267 -0.09997174888807162,19.0226296636854 -1.699519731097217,18.722272353206158 c-1.5995479822091454,-0.3003573104792433 -1.7994914799852886,-1.9022629663685402 -2.0994067266495033,-13.616198075059025 l-0.2999152466642148,-13.2157216610867 l-37.38943408413877,0 l-37.489405833026844,0 l-0.09997174888807162,2.7032157943131887 c0,1.601905655889297 -1.4995762333210738,-2.5029775873270266 -3.2990677133063624,-9.010719314377296 c-1.7994914799852886,-6.407622623557188 -3.598982959970577,-12.014292419169728 -3.8988982066347924,-12.31464972964897 c-0.499858744440358,-0.5005955174654054 -67.38095875056025,17.020247593823782 -68.28070449055289,17.82120042176843 c-0.1999434977761433,0.20023820698616218 1.199660986656859,6.107265313077945 3.099124215530219,13.115602557593618 c1.8994632288733602,7.008337244515674 3.4990112110825056,13.2157216610867 3.4990112110825056,13.716317178552107 c0,0.6007146209584866 -13.996044844330022,1.0011910349308106 -38.48912332190756,1.0011910349308106 l-38.48912332190756,0 l-0.1999434977761433,-22.827155596422482 l-0.2999152466642148,-22.7270364929294 l-38.6890668196837,-0.3003573104792433 l-38.789038568571776,-0.20023820698616218 l-0.1999434977761433,22.7270364929294 zm224.1366610070565,14.317031799510591 l0,9.010719314377296 l-32.190903141959055,0 c-17.694999553188673,0 -31.791016146406765,-0.3003573104792433 -31.39112915085448,-0.7008337244515674 c0.6998022422165013,-0.7008337244515674 59.783105835066806,-17.020247593823782 62.38237130615667,-17.220485800809943 c0.8997457399926444,-0.10011910349308106 1.199660986656859,2.3027393803408645 1.199660986656859,8.910600210884215 z" id="svg_20" class="" fill="#f5cac2"/>
<path d="M751.6578872201175,667.7794695309733 l0,3.504168622257837 l34.99011211082505,0 l34.99011211082505,0 l0,-3.504168622257837 l0,-3.504168622257837 l-34.99011211082505,0 l-34.99011211082505,0 l0,3.504168622257837 z" id="svg_21" class="" fill="#f5cac2"/>
<path d="M1048.9738684132424,667.6793504274804 c-0.2999152466642148,0.8009528279446485 -0.3998869955522865,2.3027393803408645 -0.1999434977761433,3.303930415271675 c0.2999152466642148,1.702024759382378 2.5992654710898613,1.8021438628754591 37.58937758191492,2.1025011733547023 l37.18949058636263,0.20023820698616218 l0,-3.504168622257837 l0,-3.504168622257837 l-36.98954708858649,0 c-31.39112915085448,0 -37.08951883747456,0.20023820698616218 -37.58937758191492,1.4016674489031349 z" id="svg_22" class="" fill="#f5cac2"/>






</g></svg>